<svg width="22" height="22" viewBox="0 0 22 22" fill="none" xmlns="http://www.w3.org/2000/svg">
<rect width="22" height="22" fill="white"/>
<path d="M18.3149 4.73863C16.5635 3.32925 13.7929 3.09035 13.6743 3.08175C13.4904 3.06629 13.315 3.16941 13.2394 3.33957C13.2325 3.34988 13.1724 3.4891 13.1054 3.70566C14.2638 3.9016 15.6869 4.29519 16.9743 5.09441C17.1805 5.2216 17.2441 5.49316 17.1169 5.69941C17.0327 5.83519 16.89 5.9091 16.7422 5.9091C16.6632 5.9091 16.5824 5.88675 16.5102 5.84207C14.2964 4.46879 11.5327 4.40004 10.9999 4.40004C10.4671 4.40004 7.7016 4.46879 5.48957 5.84207C5.28332 5.97097 5.01176 5.90738 4.88457 5.70113C4.75566 5.49316 4.81926 5.22332 5.02551 5.09441C6.31285 4.29691 7.73598 3.9016 8.89441 3.70738C8.82738 3.4891 8.76723 3.3516 8.76207 3.33957C8.68473 3.16941 8.51113 3.06285 8.32551 3.08175C8.20691 3.09035 5.43629 3.32925 3.66082 4.75754C2.73441 5.61519 0.879883 10.6271 0.879883 14.96C0.879883 15.0374 0.900508 15.1113 0.938321 15.1783C2.21707 17.4264 5.70785 18.0143 6.50363 18.04C6.50707 18.04 6.51223 18.04 6.51738 18.04C6.65832 18.04 6.79066 17.973 6.87316 17.8596L7.67754 16.7527C5.50676 16.1924 4.39816 15.2402 4.33457 15.1835C4.15238 15.0236 4.1352 14.7452 4.29676 14.563C4.4566 14.3808 4.73504 14.3636 4.91723 14.5235C4.94301 14.5475 6.98488 16.28 10.9999 16.28C15.0218 16.28 17.0636 14.5407 17.0843 14.5235C17.2664 14.3654 17.5432 14.3808 17.7047 14.5647C17.8646 14.7469 17.8474 15.0236 17.6652 15.1835C17.6016 15.2402 16.493 16.1924 14.3222 16.7527L15.1266 17.8596C15.2091 17.973 15.3414 18.04 15.4824 18.04C15.4875 18.04 15.4927 18.04 15.4961 18.04C16.2919 18.0143 19.7827 17.4264 21.0614 15.1783C21.0993 15.1113 21.1199 15.0374 21.1199 14.96C21.1199 10.6271 19.2654 5.61519 18.3149 4.73863ZM8.13988 13.2C7.2891 13.2 6.59988 12.4129 6.59988 11.44C6.59988 10.4672 7.2891 9.68004 8.13988 9.68004C8.99066 9.68004 9.67988 10.4672 9.67988 11.44C9.67988 12.4129 8.99066 13.2 8.13988 13.2ZM13.8599 13.2C13.0091 13.2 12.3199 12.4129 12.3199 11.44C12.3199 10.4672 13.0091 9.68004 13.8599 9.68004C14.7107 9.68004 15.3999 10.4672 15.3999 11.44C15.3999 12.4129 14.7107 13.2 13.8599 13.2Z" fill="#812AB6"/>
</svg>
