<svg width="33" height="43" viewBox="0 0 33 43" fill="none" xmlns="http://www.w3.org/2000/svg">
<path d="M7.99237 27.6794C8.04922 27.5654 8.15583 27.5084 8.31218 27.5084H10.7854C10.8565 27.5084 10.9133 27.5369 10.956 27.5939C11.0128 27.6366 11.0413 27.6936 11.0413 27.7649V42.2127C11.0413 42.2839 11.0128 42.348 10.956 42.405C10.9133 42.4478 10.8565 42.4692 10.7854 42.4692H8.29086C8.21979 42.4692 8.15583 42.4478 8.09897 42.405C8.05633 42.348 8.03501 42.2839 8.03501 42.2127V32.6164C8.03501 32.5594 8.0208 32.5309 7.99237 32.5309C7.96394 32.5309 7.93551 32.5523 7.90708 32.595L6.24405 35.5445C6.17298 35.6584 6.11613 35.7154 6.07349 35.7154C6.03084 35.7154 5.97399 35.6584 5.90292 35.5445L4.23989 32.595C4.21146 32.5523 4.18303 32.5309 4.1546 32.5309C4.12618 32.5309 4.11196 32.5594 4.11196 32.6164V42.2127C4.11196 42.2839 4.08353 42.348 4.02668 42.405C3.98404 42.4478 3.92718 42.4692 3.85611 42.4692H1.36156C1.29049 42.4692 1.22653 42.4478 1.16968 42.405C1.12703 42.348 1.10571 42.2839 1.10571 42.2127V27.7649C1.10571 27.6936 1.12703 27.6366 1.16968 27.5939C1.22653 27.5369 1.29049 27.5084 1.36156 27.5084H3.81347C3.95561 27.5084 4.06221 27.5654 4.13328 27.6794L6.03084 31.0776C6.07349 31.1346 6.11613 31.1346 6.15877 31.0776L7.99237 27.6794Z" fill="#F8F8F8"/>
<path d="M19.6731 27.6794C19.7299 27.5654 19.8365 27.5084 19.9929 27.5084H22.4661C22.5372 27.5084 22.594 27.5369 22.6367 27.5939C22.6935 27.6366 22.722 27.6936 22.722 27.7649V42.2127C22.722 42.2839 22.6935 42.348 22.6367 42.405C22.594 42.4478 22.5372 42.4692 22.4661 42.4692H19.9716C19.9005 42.4692 19.8365 42.4478 19.7797 42.405C19.737 42.348 19.7157 42.2839 19.7157 42.2127V32.6164C19.7157 32.5594 19.7015 32.5309 19.6731 32.5309C19.6446 32.5309 19.6162 32.5523 19.5878 32.595L17.9247 35.5445C17.8537 35.6584 17.7968 35.7154 17.7542 35.7154C17.7115 35.7154 17.6547 35.6584 17.5836 35.5445L15.9206 32.595C15.8922 32.5523 15.8637 32.5309 15.8353 32.5309C15.8069 32.5309 15.7927 32.5594 15.7927 32.6164V42.2127C15.7927 42.2839 15.7642 42.348 15.7074 42.405C15.6647 42.4478 15.6079 42.4692 15.5368 42.4692H13.0423C12.9712 42.4692 12.9072 42.4478 12.8504 42.405C12.8077 42.348 12.7864 42.2839 12.7864 42.2127V27.7649C12.7864 27.6936 12.8077 27.6366 12.8504 27.5939C12.9072 27.5369 12.9712 27.5084 13.0423 27.5084H15.4942C15.6363 27.5084 15.7429 27.5654 15.814 27.6794L17.7115 31.0776C17.7542 31.1346 17.7968 31.1346 17.8395 31.0776L19.6731 27.6794Z" fill="#F8F8F8"/>
<path d="M28.6247 42.6401C27.317 42.6401 26.2723 42.2554 25.4905 41.486C24.7087 40.7166 24.3179 39.6907 24.3179 38.4084V31.5692C24.3179 30.2868 24.7087 29.2609 25.4905 28.4915C26.2723 27.7221 27.317 27.3374 28.6247 27.3374C29.9324 27.3374 30.9771 27.7221 31.7589 28.4915C32.5548 29.2609 32.9528 30.2868 32.9528 31.5692V38.4084C32.9528 39.6907 32.5548 40.7166 31.7589 41.486C30.9771 42.2554 29.9324 42.6401 28.6247 42.6401ZM28.6247 40.0541C29.0227 40.0541 29.3425 39.9187 29.5841 39.648C29.8258 39.363 29.9466 38.9926 29.9466 38.5366V31.4409C29.9466 30.985 29.8258 30.6216 29.5841 30.3509C29.3425 30.066 29.0227 29.9235 28.6247 29.9235C28.2267 29.9235 27.9069 30.066 27.6652 30.3509C27.4378 30.6216 27.3241 30.985 27.3241 31.4409V38.5366C27.3241 38.9926 27.4378 39.363 27.6652 39.648C27.9069 39.9187 28.2267 40.0541 28.6247 40.0541Z" fill="#F8F8F8"/>
<path d="M14.6282 0.640137C14.7846 0.640137 14.9074 0.684917 14.9968 0.774478C15.0861 0.86404 15.1308 0.987185 15.1308 1.14392V5.64436C15.1308 5.89066 15.0526 6.10336 14.8963 6.28249L11.4453 9.90971C11.4007 9.95449 11.3783 10.0105 11.3783 10.0776C11.4007 10.1224 11.4565 10.1448 11.5459 10.1448C12.5733 10.2344 13.4221 10.7381 14.0922 11.6561C14.7846 12.5518 15.1308 13.6265 15.1308 14.8803V18.3732C15.1308 19.5375 14.8293 20.5787 14.2262 21.4967C13.6455 22.4147 12.8302 23.1312 11.7804 23.6461C10.7306 24.1611 9.5356 24.4186 8.19542 24.4186C6.78824 24.4186 5.53742 24.1611 4.44294 23.6461C3.34847 23.1312 2.48853 22.4147 1.86311 21.4967C1.26003 20.5787 0.958496 19.5375 0.958496 18.3732V16.8619C0.958496 16.7052 1.00317 16.582 1.09251 16.4924C1.18186 16.4029 1.30471 16.3581 1.46106 16.3581H6.75474C6.91109 16.3581 7.03394 16.4029 7.12329 16.4924C7.21263 16.582 7.2573 16.7052 7.2573 16.8619V17.7687C7.2573 18.1493 7.33548 18.4516 7.49183 18.6755C7.67052 18.8994 7.90505 19.0114 8.19542 19.0114C8.48579 19.0114 8.72032 18.8994 8.89901 18.6755C9.0777 18.4292 9.16705 18.1269 9.16705 17.7687V13.9735C9.16705 13.6153 9.0777 13.3242 8.89901 13.1003C8.72032 12.854 8.48579 12.7309 8.19542 12.7309C7.83804 12.7309 7.44716 12.9212 7.02277 13.3018C6.86642 13.4138 6.74357 13.4698 6.65423 13.4698C6.54255 13.4698 6.43086 13.4138 6.31918 13.3018L3.63884 10.5142C3.54949 10.4247 3.50482 10.3127 3.50482 10.1784C3.50482 10.0217 3.56066 9.89851 3.67234 9.80895L7.35782 6.2489C7.42482 6.20412 7.44716 6.15934 7.42482 6.11456C7.40249 6.04739 7.34665 6.0138 7.2573 6.0138H1.99713C1.84078 6.0138 1.71793 5.96902 1.62858 5.87946C1.53924 5.7899 1.49456 5.66675 1.49456 5.51002V1.14392C1.49456 0.987185 1.53924 0.86404 1.62858 0.774478C1.71793 0.684917 1.84078 0.640137 1.99713 0.640137H14.6282Z" fill="#F8F8F8"/>
<path d="M17.4125 24.1499C17.2562 24.1499 17.1333 24.1051 17.044 24.0156C16.9546 23.926 16.9099 23.8029 16.9099 23.6461V1.14392C16.9099 0.987185 16.9546 0.86404 17.044 0.774478C17.1333 0.684917 17.2562 0.640137 17.4125 0.640137H22.7062C22.8625 0.640137 22.9854 0.684917 23.0747 0.774478C23.1641 0.86404 23.2087 0.987185 23.2087 1.14392V7.79383C23.2087 7.88339 23.2311 7.93937 23.2758 7.96176C23.3428 7.96176 23.3986 7.91697 23.4433 7.82741L26.2576 1.04316C26.3693 0.774479 26.5703 0.640137 26.8607 0.640137H32.3889C32.5676 0.640137 32.7016 0.696112 32.791 0.808064C32.8803 0.920015 32.8803 1.06555 32.791 1.24467L28.0669 11.1524C28.0445 11.2419 28.0445 11.3315 28.0669 11.4211L32.925 23.579C32.9473 23.6461 32.9585 23.7245 32.9585 23.8141C32.9585 24.038 32.8133 24.1499 32.5229 24.1499H26.9612C26.6709 24.1499 26.4698 24.0156 26.3582 23.7469L23.7783 16.8619C23.756 16.7499 23.7113 16.694 23.6443 16.694C23.5996 16.694 23.555 16.7499 23.5103 16.8619L23.2423 17.5336C23.2199 17.5784 23.2087 17.6679 23.2087 17.8023V23.6461C23.2087 23.8029 23.1641 23.926 23.0747 24.0156C22.9854 24.1051 22.8625 24.1499 22.7062 24.1499H17.4125Z" fill="#F8F8F8"/>
</svg>
