<svg width="120" height="120" viewBox="0 0 120 120" fill="none" xmlns="http://www.w3.org/2000/svg">
<rect x="60.0002" width="84.5046" height="84.5046" transform="rotate(45 60.0002 0)" fill="#393939"/>
<path d="M51.0341 65.7926C51.091 65.6787 51.1976 65.6217 51.3539 65.6217H53.8272C53.8982 65.6217 53.9551 65.6502 53.9977 65.7072C54.0546 65.7499 54.083 65.8069 54.083 65.8781V80.326C54.083 80.3972 54.0546 80.4613 53.9977 80.5183C53.9551 80.5611 53.8982 80.5824 53.8272 80.5824H51.3326C51.2615 80.5824 51.1976 80.5611 51.1407 80.5183C51.0981 80.4613 51.0768 80.3972 51.0768 80.326V70.7297C51.0768 70.6727 51.0625 70.6442 51.0341 70.6442C51.0057 70.6442 50.9773 70.6656 50.9488 70.7083L49.2858 73.6577C49.2147 73.7717 49.1579 73.8287 49.1152 73.8287C49.0726 73.8287 49.0157 73.7717 48.9447 73.6577L47.2816 70.7083C47.2532 70.6656 47.2248 70.6442 47.1964 70.6442C47.1679 70.6442 47.1537 70.6727 47.1537 70.7297V80.326C47.1537 80.3972 47.1253 80.4613 47.0684 80.5183C47.0258 80.5611 46.9689 80.5824 46.8979 80.5824H44.4033C44.3322 80.5824 44.2683 80.5611 44.2114 80.5183C44.1688 80.4613 44.1475 80.3972 44.1475 80.326V65.8781C44.1475 65.8069 44.1688 65.7499 44.2114 65.7072C44.2683 65.6502 44.3322 65.6217 44.4033 65.6217H46.8552C46.9974 65.6217 47.104 65.6787 47.175 65.7926L49.0726 69.1909C49.1152 69.2479 49.1579 69.2479 49.2005 69.1909L51.0341 65.7926Z" fill="#F8F8F8"/>
<path d="M62.7148 65.7926C62.7717 65.6787 62.8783 65.6217 63.0346 65.6217H65.5079C65.5789 65.6217 65.6358 65.6502 65.6784 65.7072C65.7353 65.7499 65.7637 65.8069 65.7637 65.8781V80.326C65.7637 80.3972 65.7353 80.4613 65.6784 80.5183C65.6358 80.5611 65.5789 80.5824 65.5079 80.5824H63.0133C62.9422 80.5824 62.8783 80.5611 62.8214 80.5183C62.7788 80.4613 62.7575 80.3972 62.7575 80.326V70.7297C62.7575 70.6727 62.7432 70.6442 62.7148 70.6442C62.6864 70.6442 62.658 70.6656 62.6295 70.7083L60.9665 73.6577C60.8954 73.7717 60.8386 73.8287 60.7959 73.8287C60.7533 73.8287 60.6964 73.7717 60.6254 73.6577L58.9623 70.7083C58.9339 70.6656 58.9055 70.6442 58.877 70.6442C58.8486 70.6442 58.8344 70.6727 58.8344 70.7297V80.326C58.8344 80.3972 58.806 80.4613 58.7491 80.5183C58.7065 80.5611 58.6496 80.5824 58.5786 80.5824H56.084C56.0129 80.5824 55.949 80.5611 55.8921 80.5183C55.8495 80.4613 55.8282 80.3972 55.8282 80.326V65.8781C55.8282 65.8069 55.8495 65.7499 55.8921 65.7072C55.949 65.6502 56.0129 65.6217 56.084 65.6217H58.5359C58.6781 65.6217 58.7847 65.6787 58.8557 65.7926L60.7533 69.1909C60.7959 69.2479 60.8386 69.2479 60.8812 69.1909L62.7148 65.7926Z" fill="#F8F8F8"/>
<path d="M71.6664 80.7534C70.3587 80.7534 69.314 80.3687 68.5323 79.5993C67.7505 78.8299 67.3596 77.804 67.3596 76.5217V69.6824C67.3596 68.4001 67.7505 67.3742 68.5323 66.6048C69.314 65.8354 70.3587 65.4507 71.6664 65.4507C72.9741 65.4507 74.0188 65.8354 74.8006 66.6048C75.5966 67.3742 75.9946 68.4001 75.9946 69.6824V76.5217C75.9946 77.804 75.5966 78.8299 74.8006 79.5993C74.0188 80.3687 72.9741 80.7534 71.6664 80.7534ZM71.6664 78.1673C72.0644 78.1673 72.3842 78.032 72.6259 77.7613C72.8675 77.4763 72.9883 77.1058 72.9883 76.6499V69.5542C72.9883 69.0983 72.8675 68.7349 72.6259 68.4642C72.3842 68.1792 72.0644 68.0368 71.6664 68.0368C71.2684 68.0368 70.9486 68.1792 70.707 68.4642C70.4796 68.7349 70.3659 69.0983 70.3659 69.5542V76.6499C70.3659 77.1058 70.4796 77.4763 70.707 77.7613C70.9486 78.032 71.2684 78.1673 71.6664 78.1673Z" fill="#F8F8F8"/>
<path d="M57.67 38.7534C57.8263 38.7534 57.9492 38.7982 58.0385 38.8878C58.1279 38.9773 58.1726 39.1005 58.1726 39.2572V43.7576C58.1726 44.0039 58.0944 44.2166 57.938 44.3958L54.4871 48.023C54.4424 48.0678 54.4201 48.1237 54.4201 48.1909C54.4424 48.2357 54.4983 48.2581 54.5876 48.2581C55.6151 48.3476 56.4638 48.8514 57.1339 49.7694C57.8263 50.665 58.1726 51.7398 58.1726 52.9936V56.4865C58.1726 57.6508 57.871 58.692 57.2679 59.61C56.6872 60.528 55.8719 61.2444 54.8221 61.7594C53.7723 62.2744 52.5773 62.5319 51.2372 62.5319C49.83 62.5319 48.5792 62.2744 47.4847 61.7594C46.3902 61.2444 45.5303 60.528 44.9049 59.61C44.3018 58.692 44.0002 57.6508 44.0002 56.4865V54.9752C44.0002 54.8184 44.0449 54.6953 44.1343 54.6057C44.2236 54.5162 44.3465 54.4714 44.5028 54.4714H49.7965C49.9528 54.4714 50.0757 54.5162 50.165 54.6057C50.2544 54.6953 50.2991 54.8184 50.2991 54.9752V55.882C50.2991 56.2626 50.3772 56.5649 50.5336 56.7888C50.7123 57.0127 50.9468 57.1246 51.2372 57.1246C51.5275 57.1246 51.7621 57.0127 51.9408 56.7888C52.1195 56.5425 52.2088 56.2402 52.2088 55.882V52.0868C52.2088 51.7286 52.1195 51.4375 51.9408 51.2136C51.7621 50.9673 51.5275 50.8442 51.2372 50.8442C50.8798 50.8442 50.4889 51.0345 50.0645 51.4151C49.9082 51.5271 49.7853 51.583 49.696 51.583C49.5843 51.583 49.4726 51.5271 49.3609 51.4151L46.6806 48.6275C46.5912 48.538 46.5466 48.426 46.5466 48.2917C46.5466 48.1349 46.6024 48.0118 46.7141 47.9222L50.3996 44.3622C50.4666 44.3174 50.4889 44.2726 50.4666 44.2278C50.4442 44.1607 50.3884 44.1271 50.2991 44.1271H45.0389C44.8825 44.1271 44.7597 44.0823 44.6703 43.9927C44.581 43.9032 44.5363 43.78 44.5363 43.6233V39.2572C44.5363 39.1005 44.581 38.9773 44.6703 38.8878C44.7597 38.7982 44.8825 38.7534 45.0389 38.7534H57.67Z" fill="#F8F8F8"/>
<path d="M60.4543 62.2632C60.2979 62.2632 60.1751 62.2184 60.0857 62.1289C59.9964 62.0393 59.9517 61.9162 59.9517 61.7594V39.2572C59.9517 39.1005 59.9964 38.9773 60.0857 38.8878C60.1751 38.7982 60.2979 38.7534 60.4543 38.7534H65.7479C65.9043 38.7534 66.0271 38.7982 66.1165 38.8878C66.2058 38.9773 66.2505 39.1005 66.2505 39.2572V45.9071C66.2505 45.9967 66.2728 46.0526 66.3175 46.075C66.3845 46.075 66.4404 46.0303 66.485 45.9407L69.2994 39.1564C69.4111 38.8878 69.6121 38.7534 69.9025 38.7534H75.4307C75.6094 38.7534 75.7434 38.8094 75.8327 38.9213C75.9221 39.0333 75.9221 39.1788 75.8327 39.358L71.1086 49.2656C71.0863 49.3552 71.0863 49.4448 71.1086 49.5343L75.9667 61.6922C75.9891 61.7594 76.0002 61.8378 76.0002 61.9273C76.0002 62.1512 75.8551 62.2632 75.5647 62.2632H70.003C69.7126 62.2632 69.5116 62.1289 69.3999 61.8602L66.8201 54.9752C66.7977 54.8632 66.7531 54.8072 66.6861 54.8072C66.6414 54.8072 66.5967 54.8632 66.552 54.9752L66.284 55.6469C66.2617 55.6917 66.2505 55.7812 66.2505 55.9156V61.7594C66.2505 61.9162 66.2058 62.0393 66.1165 62.1289C66.0271 62.2184 65.9043 62.2632 65.7479 62.2632H60.4543Z" fill="#F8F8F8"/>
</svg>
