<svg width="22" height="22" viewBox="0 0 22 22" fill="none" xmlns="http://www.w3.org/2000/svg">
<path d="M22 0H0V22H22V0Z" fill="white"/>
<path d="M4.10777 10.7445L7.40033 11.9734L8.67468 16.0718C8.75619 16.3342 9.07709 16.4311 9.29007 16.2569L11.1255 14.7609C11.3178 14.604 11.5917 14.5963 11.7927 14.7423L15.1029 17.1456C15.3309 17.311 15.6537 17.1863 15.7109 16.911L18.1358 5.247C18.1981 4.94614 17.9026 4.69523 17.6162 4.80598L4.10405 10.0186C3.77058 10.1472 3.77341 10.6192 4.10777 10.7445ZM8.46933 11.3193L14.9038 7.35628C15.0193 7.28524 15.1385 7.44169 15.039 7.53382L9.72879 12.47C9.54203 12.6436 9.42173 12.8763 9.38753 13.1286L9.20679 14.4693C9.1827 14.6483 8.93126 14.666 8.88183 14.4926L8.18617 12.0481C8.10661 11.7695 8.22267 11.4716 8.46933 11.3193Z" fill="#812AB6"/>
</svg>
