<svg width="22" height="22" viewBox="0 0 22 22" fill="none" xmlns="http://www.w3.org/2000/svg">
<path d="M22 0H0V22H22V0Z" fill="white"/>
<path d="M17.1914 6.83664C16.8819 6.91919 16.6342 6.91919 16.6342 6.91919V6.85728C16.9231 6.63027 17.6661 5.90797 17.7486 5.57778C17.7899 5.43332 17.7486 5.39205 17.7486 5.37141L16.7993 5.76352L16.0151 6.11435C15.4785 5.53651 14.6531 5.16504 13.7243 5.16504C12.094 5.16504 10.7733 6.32071 10.7733 7.74467C10.7733 8.01295 10.8146 8.4876 10.8971 8.71462C10.8971 8.79716 10.8971 8.63206 10.8971 8.71462C9.84464 8.69397 8.50323 8.26059 7.28564 7.64148C4.91238 6.44454 4.76793 5.61905 4.76793 5.61905C4.39646 6.01116 4.21072 7.33193 4.58219 8.34315C4.82983 9.00353 5.65532 9.58137 5.65532 9.58137C5.65532 9.58137 5.28385 9.58137 4.89175 9.45755C4.49965 9.33372 4.35518 9.18926 4.35518 9.18926C4.12818 9.74646 4.58219 10.7577 5.38704 11.48C5.86169 11.8927 6.70781 12.161 6.70781 12.161L5.36639 12.2023C5.28385 13.5024 8.09049 14.266 8.09049 14.266C7.265 14.9058 6.3157 15.2772 5.30448 15.2772C4.76793 15.2772 4.27263 15.1946 3.77734 15.0502C5.11875 16.1646 6.85226 16.9281 8.73024 16.8249C13.7243 16.5566 16.531 12.2642 16.6755 8.05422C16.6755 8.05422 16.9025 7.93041 17.4185 7.43511C17.9137 6.93982 18.2232 6.34136 18.2232 6.34136C18.2232 6.34136 17.5217 6.75409 17.1914 6.83664Z" fill="#812AB6"/>
</svg>
